{"title":"Demon Hunter 2005 DVDRip Xvid AC3 LKRG","uid":10717782,"size":788344661,"categoryP":"video","categoryS":"movies","magnet":"?xt=urn:btih:80597785f71d221e3ff413a8f47e6e3e1b277358&amp;dn=Demon+Hunter+2005+DVDRip+Xvid+AC3+LKRG&amp;tr=udp%3A%2F%2Ftracker.openbittorrent.com%3A80&amp;tr=udp%3A%2F%2Fopen.demonii.com%3A1337&amp;tr=udp%3A%2F%2Ftracker.coppersurfer.tk%3A6969&amp;tr=udp%3A%2F%2Fexodus.desync.com%3A6969","seeders":1,"leechers":0,"uploader":".BONE.","files":2,"time":1407433095,"description":"PLOT\n\nAfter resolving a situation of exorcism, the half-breed demon hunter Jake Greyman reports to Cardinal\nWhite and they realize that the demon Asmodeus is impregnating many mortals trying to ...\n\nRuntime ..........: 1h 18mn\nFile Size ........: 752 MB\nResolution .......: 720 x 480 &lt;a href=&quot;\nhttp://www.imdb.com/title/tt0435631/&quot; rel=&quot;nofollow&quot; target=&quot;_NEW&quot;&gt;\nhttp://www.imdb.com/title/tt0435631/&lt;/a&gt;\nGenre ............: Horror\nLanguage .........: English\nSubtitles ........: None\nComplete name : Demon Hunter 2005 DVDRip Xvid AC3 LKRGDHunter_LKRG.avi\nFormat : AVI\nFormat/Info : Audio Video Interleave\nFile size : 752 MiB\nDuration : 1h 18mn\nOverall bit rate : 1 340 Kbps\nWriting application : VirtualDubMod 1.5.10.2 (build 2540/release)\nWriting library : VirtualDubMod build 2540/release\nVideo\nID : 0\nFormat : MPEG-4 Visual\nFormat profile : Advanced Simple@L5\nFormat settings, BVOP : 2\nFormat settings, QPel : No\nFormat settings, GMC : No warppoints\nFormat settings, Matrix : Default (H.263)\nMuxing mode : Packed bitstream\nCodec ID : XVID\nCodec ID/Hint : XviD\nDuration : 1h 18mn\nBit rate : 883 Kbps\nWidth : 720 pixels\nHeight : 480 pixels\nDisplay aspect ratio : 16:9\nFrame rate : 23.976 fps\nStandard : NTSC\nColor space : YUV\nChroma subsampling : 4:2:0\nBit depth : 8 bits\nScan type : Progressive\nCompression mode : Lossy\nBits/(Pixel*Frame) : 0.107\nStream size : 495 MiB (66%)\nWriting library : XviD 1.2.1 (UTC 2008-12-04)\nAudio\nID : 1\nFormat : AC-3\nFormat/Info : Audio Coding 3\nMode extension : CM (complete main)\nFormat settings, Endianness : Big\nCodec ID : 2000\nDuration : 1h 18mn\nBit rate mode : Constant\nBit rate : 448 Kbps\nChannel(s) : 6 channels\nChannel positions : Front: L C R, Side: L R, LFE\nSampling rate : 48.0 KHz\nBit depth : 16 bits\nCompression mode : Lossy\nStream size : 251 MiB (33%)\nAlignment : Split accross interleaves\nInterleave, duration : 42 ms (1.00 video frame)\nInterleave, preload duration : 500 ms","torrent":{"xt":"urn:btih:80597785f71d221e3ff413a8f47e6e3e1b277358","amp;dn":"Demon+Hunter+2005+DVDRip+Xvid+AC3+LKRG","amp;tr":["udp%3A%2F%2Ftracker.openbittorrent.com%3A80","udp%3A%2F%2Fopen.demonii.com%3A1337","udp%3A%2F%2Ftracker.coppersurfer.tk%3A6969","udp%3A%2F%2Fexodus.desync.com%3A6969"],"infoHash":"80597785f71d221e3ff413a8f47e6e3e1b277358","infoHashBuffer":{"type":"Buffer","data":[128,89,119,133,247,29,34,30,63,244,19,168,244,126,110,62,27,39,115,88]},"announce":[],"urlList":[]}}